<svg width="384.8" height="89.6" viewBox="0 0 384.8 89.6" xmlns="http://www.w3.org/2000/svg"><g id="svgGroup" stroke-linecap="round" fill-rule="evenodd" font-size="100pt" stroke="#000" stroke-width="100mm" fill="#F00" style="stroke:#F00;stroke-width:0.25mm;fill:#000"><path d="M 285.9 89.6 L 280.6 86.6 A 111.545 111.545 0 0 0 285.165 74.276 A 134.237 134.237 0 0 0 287 67.7 Q 289.6 57.4 289.6 45.3 Q 289.6 33.1 287 22.75 A 122.52 122.52 0 0 0 283.695 11.723 A 98.342 98.342 0 0 0 280.6 4 L 285.9 1 A 111.292 111.292 0 0 1 293.681 16.834 A 98.646 98.646 0 0 1 295.6 22.15 A 70.555 70.555 0 0 1 298.853 38.79 A 84.329 84.329 0 0 1 299.1 45.3 Q 299.1 56.9 295.6 67.75 A 114.165 114.165 0 0 1 289.003 83.767 A 133.752 133.752 0 0 1 285.9 89.6 Z M 104.2 86.6 L 98.9 89.6 A 124.832 124.832 0 0 1 91.651 74.546 A 107.39 107.39 0 0 1 89.2 67.75 Q 85.7 56.9 85.7 45.3 A 77.295 77.295 0 0 1 87.157 30.044 A 66.167 66.167 0 0 1 89.25 22.15 A 111.156 111.156 0 0 1 96.702 4.943 A 125.985 125.985 0 0 1 98.9 1 L 104.2 4 A 110.263 110.263 0 0 0 100.176 14.662 A 138.588 138.588 0 0 0 97.85 22.75 A 84.742 84.742 0 0 0 95.513 37.131 A 104.028 104.028 0 0 0 95.2 45.3 Q 95.2 57.4 97.85 67.7 A 139.071 139.071 0 0 0 101.573 79.911 A 114.867 114.867 0 0 0 104.2 86.6 Z M 75.3 81.9 L 67.9 84.4 L 39.7 2.5 L 47.1 0 L 75.3 81.9 Z M 345.1 2.5 L 316.9 84.4 L 309.5 81.9 L 337.7 0 L 345.1 2.5 Z M 231.6 75.05 A 24.559 24.559 0 0 0 236.198 77.14 Q 240.253 78.5 244.9 78.5 Q 252.3 78.5 258.15 75.1 Q 264 71.7 267.4 65.55 A 26.255 26.255 0 0 0 270.053 58.409 A 34.184 34.184 0 0 0 270.8 51.1 A 34.542 34.542 0 0 0 270.315 45.191 A 25.795 25.795 0 0 0 267.35 36.75 Q 263.9 30.7 258.05 27.4 A 24.848 24.848 0 0 0 253.409 25.373 A 27.738 27.738 0 0 0 244.9 24.1 A 31.325 31.325 0 0 0 243.32 24.139 A 26.169 26.169 0 0 0 231.7 27.4 Q 225.8 30.7 222.4 36.8 A 26.023 26.023 0 0 0 219.651 44.39 A 35.006 35.006 0 0 0 219 51.3 A 34.82 34.82 0 0 0 219.265 55.654 A 27.451 27.451 0 0 0 222.35 65.45 Q 225.7 71.6 231.6 75.05 Z M 215 88.8 L 155 88.8 L 155 82.8 L 215 82.8 L 215 88.8 Z M 244.9 70.5 Q 252.8 70.5 257.2 65.15 A 18.802 18.802 0 0 0 261.019 57.06 A 27.105 27.105 0 0 0 261.6 51.3 Q 261.6 46.1 259.4 41.75 A 19.198 19.198 0 0 0 255.228 36.181 A 18.17 18.17 0 0 0 253.45 34.75 Q 249.7 32.1 244.9 32.1 A 19.249 19.249 0 0 0 239.674 32.772 A 14.037 14.037 0 0 0 232.6 37.3 A 17.878 17.878 0 0 0 228.926 44.674 Q 228.2 47.606 228.2 51.1 Q 228.2 56.3 230.4 60.75 A 19.437 19.437 0 0 0 233.93 65.79 A 17.627 17.627 0 0 0 236.35 67.85 Q 240.1 70.5 244.9 70.5 Z M 129.5 31.5 Q 125.6 31.5 122.3 29.65 Q 119 27.8 117 24.6 A 13.249 13.249 0 0 1 115.002 17.665 A 15.844 15.844 0 0 1 115 17.4 A 14.281 14.281 0 0 1 115.615 13.144 A 12.446 12.446 0 0 1 117 10.15 Q 119 7 122.3 5.15 Q 125.6 3.3 129.5 3.3 A 14.9 14.9 0 0 1 134.618 4.165 A 13.84 13.84 0 0 1 136.75 5.15 Q 140 7 142 10.15 A 12.893 12.893 0 0 1 143.951 16.142 A 15.955 15.955 0 0 1 144 17.4 A 13.707 13.707 0 0 1 143.055 22.522 A 12.986 12.986 0 0 1 142 24.6 Q 140 27.8 136.75 29.65 A 14.263 14.263 0 0 1 130.059 31.491 A 16.965 16.965 0 0 1 129.5 31.5 Z M 29 14.6 L 0 14.6 L 0 7.3 L 29 7.3 L 29 14.6 Z M 384.8 14.6 L 355.8 14.6 L 355.8 7.3 L 384.8 7.3 L 384.8 14.6 Z M 129.5 24.4 Q 132.5 24.4 134.3 22.6 A 5.788 5.788 0 0 0 135.743 20.111 Q 136.011 19.213 136.078 18.137 A 11.878 11.878 0 0 0 136.1 17.4 A 8.248 8.248 0 0 0 135.755 14.966 A 6.762 6.762 0 0 0 134.3 12.4 A 5.946 5.946 0 0 0 130.32 10.44 A 8.294 8.294 0 0 0 129.5 10.4 A 8.578 8.578 0 0 0 127.429 10.637 A 6.005 6.005 0 0 0 124.7 12.1 Q 123.248 13.471 122.967 16.079 A 12.355 12.355 0 0 0 122.9 17.4 A 8.248 8.248 0 0 0 123.245 19.834 A 6.762 6.762 0 0 0 124.7 22.4 A 5.946 5.946 0 0 0 128.68 24.36 A 8.294 8.294 0 0 0 129.5 24.4 Z" vector-effect="non-scaling-stroke"/></g></svg>